<svg xmlns="http://www.w3.org/2000/svg" width="24px" height="24px" viewBox="0 0 24 24">
<path fill="#777777" d="M7,15h1v-0.001c0.039,0,13.076-1.003,13.076-1.003c1.021-0.039,1.849-0.848,1.919-1.859l0.989-6.94
C23.995,5.126,24,5.055,24,4.984c0-1.104-0.896-2.001-2-2.001H6.5c-0.093,0-0.185,0.013-0.275,0.03
C5.719,1.475,4.556,0.729,3.546,0.379C3.079,0.216,1.668-0.072,0.798,0.051c-0.042-0.002-0.519,0.144-0.62,0.263
c-0.201,0.235-0.236,0.569-0.09,0.841s0.453,0.42,0.762,0.389c0,0,0.001,0,0.002,0C1,1.531,2.92,1.375,4.069,2.358
c0.58,0.496,0.879,1.201,0.916,2.154C4.987,4.559,5.13,5.378,5.13,5.378c0.003,0.019,0.872,7.731,0.872,7.731
c0.01,0.175,0.049,0.34,0.101,0.5C4.33,14.02,3,15.604,3,17.5c0,2.206,1.794,4,4,4h0.663C8.095,22.941,9.417,24,11,24
s2.904-1.059,3.338-2.5h1.824c0.434,1.441,1.755,2.5,3.338,2.5c1.934,0,3.5-1.566,3.5-3.5S21.434,17,19.5,17
c-1.762,0-3.205,1.307-3.449,3h-1.602c-0.244-1.693-1.688-3-3.449-3c-1.761,0-3.205,1.307-3.45,3H7c-1.381,0-2.5-1.119-2.5-2.5
S5.619,15,7,15z M22,4.483c0.275,0,0.5,0.224,0.5,0.501l-1,7.012c0,0.277-0.225,0.501-0.5,0.501L8,13.499
c-0.276,0-0.5-0.224-0.5-0.5L6.616,5.126H6.609L6.5,4.483H22z M19.5,18.5c1.104,0,2,0.896,2,2s-0.896,2-2,2s-2-0.896-2-2
S18.396,18.5,19.5,18.5z M11,18.5c1.103,0,2,0.896,2,2s-0.897,2-2,2s-2-0.896-2-2S9.897,18.5,11,18.5z"/>
</svg>
